<svg xmlns="http://www.w3.org/2000/svg" viewBox="0 0 344.5 396.0" role="img" aria-label="Reyf">
<g transform="translate(-94.6,-103.5)">
  <path fill="#8357F5" fill-rule="evenodd" d="M168.0,475.1 L137.0,475.5 L130.0,474.3 L122.1,468.0 L118.7,458.0 L118.6,146.0 L120.0,139.0 L124.0,133.0 L129.0,129.6 L136.0,127.7 L182.0,127.5 L186.0,128.2 L187.6,130.0 L182.6,142.0 L181.5,149.0 L181.4,458.0 L180.3,464.0 L177.4,469.0 L173.0,473.0 L168.0,475.1 Z"/>
  <path fill="#CDFC4A" fill-rule="evenodd" d="M407.0,475.1 L356.0,475.4 L344.0,471.7 L331.7,459.0 L266.8,374.0 L262.0,371.7 L240.0,371.1 L233.0,366.4 L232.1,362.0 L235.0,356.6 L308.0,283.0 L313.0,283.1 L333.0,302.8 L337.0,303.7 L340.0,301.7 L341.5,294.0 L340.8,211.0 L338.0,205.1 L333.0,203.6 L244.0,204.4 L241.6,207.0 L242.1,211.0 L261.2,231.0 L262.6,234.0 L261.9,237.0 L206.4,293.0 L202.0,295.6 L197.0,294.7 L194.2,291.0 L193.5,286.0 L193.6,149.0 L196.6,139.0 L205.0,131.0 L218.0,127.6 L297.0,127.5 L313.0,128.9 L330.0,132.7 L351.0,141.3 L367.0,151.9 L379.0,162.7 L394.1,183.0 L404.5,206.0 L410.2,231.0 L411.3,253.0 L405.8,284.0 L397.2,306.0 L383.3,327.0 L367.0,343.2 L342.0,359.1 L339.9,363.0 L413.5,460.0 L415.1,465.0 L414.1,470.0 L411.6,473.0 L407.0,475.1 Z"/>
</g>
</svg>
