<svg xmlns="http://www.w3.org/2000/svg" viewBox="0 0 909.9 396.0" role="img" aria-label="Reyf">
  <g transform="translate(-94.6,-103.5)">
  <path fill="#FFFFFF" fill-rule="evenodd" d="M168.0,475.1 L137.0,475.5 L130.0,474.3 L122.1,468.0 L118.7,458.0 L118.6,146.0 L120.0,139.0 L124.0,133.0 L129.0,129.6 L136.0,127.7 L182.0,127.5 L186.0,128.2 L187.6,130.0 L182.6,142.0 L181.5,149.0 L181.4,458.0 L180.3,464.0 L177.4,469.0 L173.0,473.0 L168.0,475.1 Z"/>
  <path fill="#FFFFFF" fill-rule="evenodd" d="M407.0,475.1 L356.0,475.4 L344.0,471.7 L331.7,459.0 L266.8,374.0 L262.0,371.7 L240.0,371.1 L233.0,366.4 L232.1,362.0 L235.0,356.6 L308.0,283.0 L313.0,283.1 L333.0,302.8 L337.0,303.7 L340.0,301.7 L341.5,294.0 L340.8,211.0 L338.0,205.1 L333.0,203.6 L244.0,204.4 L241.6,207.0 L242.1,211.0 L261.2,231.0 L262.6,234.0 L261.9,237.0 L206.4,293.0 L202.0,295.6 L197.0,294.7 L194.2,291.0 L193.5,286.0 L193.6,149.0 L196.6,139.0 L205.0,131.0 L218.0,127.6 L297.0,127.5 L313.0,128.9 L330.0,132.7 L351.0,141.3 L367.0,151.9 L379.0,162.7 L394.1,183.0 L404.5,206.0 L410.2,231.0 L411.3,253.0 L405.8,284.0 L397.2,306.0 L383.3,327.0 L367.0,343.2 L342.0,359.1 L339.9,363.0 L413.5,460.0 L415.1,465.0 L414.1,470.0 L411.6,473.0 L407.0,475.1 Z"/>
  <path fill="#FFFFFF" fill-rule="evenodd" d="M949.0,375.0 L927.0,375.4 L923.0,374.2 L921.3,372.0 L920.2,282.0 L917.0,278.1 L906.0,277.2 L902.5,275.0 L901.6,253.0 L902.5,250.0 L905.0,248.1 L916.0,247.1 L919.0,245.2 L924.4,221.0 L930.0,211.0 L937.0,203.8 L945.0,198.5 L954.0,195.1 L962.0,193.6 L975.0,193.7 L979.0,195.8 L980.3,199.0 L979.7,220.0 L977.0,222.7 L967.0,224.2 L960.0,227.9 L955.4,234.0 L953.7,242.0 L954.4,245.0 L957.0,247.0 L975.0,247.7 L979.0,249.8 L980.5,255.0 L980.3,272.0 L979.0,275.2 L976.2,277.0 L958.0,277.7 L954.0,281.0 L953.4,368.0 L952.0,373.0 L949.0,375.0 Z M619.0,375.1 L594.0,375.5 L588.0,373.6 L555.1,315.0 L552.0,312.3 L547.0,311.5 L532.0,311.7 L528.0,315.0 L527.5,367.0 L526.0,373.0 L521.0,375.4 L503.0,375.5 L497.0,374.9 L494.0,372.8 L492.5,365.0 L492.5,207.0 L493.1,201.0 L495.2,198.0 L506.0,196.5 L564.0,196.5 L576.0,198.0 L595.0,205.6 L603.4,212.0 L610.1,220.0 L616.0,231.0 L619.9,245.0 L620.4,257.0 L618.6,268.0 L615.2,278.0 L609.0,288.0 L603.0,295.0 L591.0,304.2 L589.4,308.0 L621.2,368.0 L621.7,373.0 L619.0,375.1 Z M565.7,280.0 L577.0,275.0 L584.0,265.0 L586.1,253.0 L584.7,245.0 L581.9,239.0 L575.0,232.1 L567.0,228.9 L530.0,229.4 L527.5,235.0 L528.4,278.0 L534.0,280.5 L565.7,280.0 Z M709.0,378.1 L693.0,378.4 L682.0,376.8 L671.0,373.2 L659.0,366.5 L648.0,356.5 L642.0,348.7 L636.5,338.0 L633.0,326.0 L631.6,316.0 L632.1,300.0 L635.6,285.0 L641.4,273.0 L650.0,262.0 L658.0,255.2 L669.0,248.9 L682.0,245.0 L692.0,243.6 L705.0,243.9 L719.0,247.0 L730.0,252.2 L740.0,259.6 L748.8,270.0 L754.5,281.0 L758.5,294.0 L760.2,314.0 L758.8,320.0 L755.2,323.0 L673.0,323.5 L667.0,325.7 L667.8,331.0 L673.0,338.4 L680.0,344.0 L688.0,347.1 L698.0,348.5 L710.0,347.2 L717.0,344.6 L729.0,336.7 L733.0,337.9 L751.1,349.0 L752.0,352.0 L750.7,355.0 L739.0,366.5 L725.0,374.1 L709.0,378.1 Z M796.0,427.0 L783.0,427.3 L778.8,425.0 L777.5,420.0 L777.9,401.0 L781.0,397.3 L792.0,395.0 L801.4,389.0 L808.2,379.0 L810.3,369.0 L765.5,257.0 L764.7,250.0 L768.0,247.8 L779.0,247.5 L793.0,247.7 L797.6,250.0 L825.0,322.3 L827.0,325.8 L829.0,326.6 L833.0,320.4 L856.0,250.6 L862.0,247.6 L887.0,248.1 L889.5,251.0 L888.2,258.0 L848.1,369.0 L837.2,395.0 L830.2,406.0 L820.0,416.3 L809.1,423.0 L796.0,427.0 Z M723.0,298.0 L725.3,296.0 L725.3,292.0 L718.8,281.0 L709.0,274.4 L698.0,271.9 L687.0,273.3 L677.0,278.3 L670.0,285.4 L666.3,294.0 L667.4,297.0 L671.0,298.4 L723.0,298.0 Z"/>
  </g>
</svg>
